<?xml version="1.0" encoding="UTF-8" standalone="no"?>
<!-- Created with Inkscape (http://www.inkscape.org/) -->

<svg
   width="55.749046mm"
   height="55.749401mm"
   viewBox="0 0 55.749047 55.749401"
   version="1.1"
   id="svg5"
   inkscape:version="1.2.2 (732a01da63, 2022-12-09)"
   sodipodi:docname="favicon.svg"
   xmlns:inkscape="http://www.inkscape.org/namespaces/inkscape"
   xmlns:sodipodi="http://sodipodi.sourceforge.net/DTD/sodipodi-0.dtd"
   xmlns="http://www.w3.org/2000/svg"
   xmlns:svg="http://www.w3.org/2000/svg">
  <sodipodi:namedview
     id="namedview7"
     pagecolor="#505050"
     bordercolor="#eeeeee"
     borderopacity="1"
     inkscape:showpageshadow="0"
     inkscape:pageopacity="0"
     inkscape:pagecheckerboard="0"
     inkscape:deskcolor="#505050"
     inkscape:document-units="mm"
     showgrid="false"
     inkscape:zoom="1.6088805"
     inkscape:cx="122.75617"
     inkscape:cy="114.98679"
     inkscape:window-width="1846"
     inkscape:window-height="1057"
     inkscape:window-x="1912"
     inkscape:window-y="1042"
     inkscape:window-maximized="1"
     inkscape:current-layer="layer1" />
  <defs
     id="defs2" />
  <g
     inkscape:label="Ebene 1"
     inkscape:groupmode="layer"
     id="layer1"
     transform="translate(-55.752272,237.6291)">
    <path
       id="path14097"
       style="opacity:1;fill:#ffffff;fill-opacity:1;stroke:none;stroke-width:0.499999;stroke-linecap:butt;stroke-linejoin:miter;stroke-miterlimit:4;stroke-dasharray:none;stroke-dashoffset:0;stroke-opacity:1;stop-color:#000000;stop-opacity:1"
       d="M 83.62654 -237.6291 A 27.874523 27.874701 0 0 0 81.543979 -237.55107 A 27.874584 27.874584 0 0 1 83.627056 -237.62858 L 83.627056 -237.6291 A 27.874523 27.874701 0 0 0 83.62654 -237.6291 z M 81.543979 -237.55107 A 27.874523 27.874701 0 0 0 73.443182 -235.70209 A 27.874584 27.874584 0 0 1 81.543979 -237.55107 z M 83.627573 -237.6291 A 27.874584 27.874584 0 0 1 85.733388 -237.549 A 27.874523 27.874701 0 0 0 83.627573 -237.6291 z M 85.744757 -237.54797 A 27.874584 27.874584 0 0 1 87.819565 -237.31077 A 27.874523 27.874701 0 0 0 85.744757 -237.54797 z M 87.854189 -237.30561 A 27.874584 27.874584 0 0 1 89.895924 -236.91338 A 27.874523 27.874701 0 0 0 87.854189 -237.30561 z M 89.931064 -236.90563 A 27.874584 27.874584 0 0 1 91.937143 -236.35941 A 27.874523 27.874701 0 0 0 89.931064 -236.90563 z M 91.9728 -236.34856 A 27.874584 27.874584 0 0 1 93.933404 -235.65196 A 27.874523 27.874701 0 0 0 91.9728 -236.34856 z M 93.96441 -235.63956 A 27.874584 27.874584 0 0 1 95.863002 -234.79723 A 27.874523 27.874701 0 0 0 93.96441 -235.63956 z M 95.900209 -234.77966 A 27.874584 27.874584 0 0 1 97.718703 -233.80194 A 27.874523 27.874701 0 0 0 95.900209 -234.77966 z M 97.771413 -233.77145 A 27.874584 27.874584 0 0 1 99.50464 -232.66196 A 27.874523 27.874701 0 0 0 97.771413 -233.77145 z M 67.924656 -232.78547 A 27.874523 27.874701 0 0 0 64.66749 -230.18769 A 27.874584 27.874584 0 0 1 67.924656 -232.78547 z M 99.549599 -232.63096 A 27.874584 27.874584 0 0 1 101.19498 -231.39279 A 27.874523 27.874701 0 0 0 99.549599 -232.63096 z M 101.23993 -231.3561 A 27.874584 27.874584 0 0 1 102.79746 -229.98719 A 27.874523 27.874701 0 0 0 101.23993 -231.3561 z M 102.8171 -229.96859 A 27.874584 27.874584 0 0 1 104.28058 -228.47049 A 27.874523 27.874701 0 0 0 102.8171 -229.96859 z M 104.28988 -228.46015 A 27.874584 27.874584 0 0 1 105.63708 -226.85405 A 27.874523 27.874701 0 0 0 104.28988 -228.46015 z M 105.65207 -226.83544 A 27.874584 27.874584 0 0 1 106.8768 -225.12702 A 27.874523 27.874701 0 0 0 105.65207 -226.83544 z M 106.8768 -225.12702 A 27.874584 27.874584 0 0 1 107.97544 -223.3199 A 27.874523 27.874701 0 0 0 106.8768 -225.12702 z M 107.97544 -223.3199 C 107.10675 -222.70282 106.40713 -221.95175 105.87738 -221.06525 L 105.79676 -221.06525 L 105.79676 -224.29245 L 99.422475 -224.29245 L 99.422475 -203.63634 L 105.79676 -203.63634 L 105.79676 -215.1142 C 105.79676 -216.59346 106.11967 -217.76339 106.76518 -218.62406 C 107.42412 -219.48473 108.29796 -219.91545 109.38724 -219.91545 C 109.45333 -219.91545 109.51848 -219.91328 109.58258 -219.91028 A 27.874584 27.874584 0 0 1 110.26522 -217.95433 A 27.874523 27.874701 0 0 0 107.97544 -223.3199 z M 89.96207 -224.79629 C 86.438714 -224.79629 83.6212 -223.78112 81.509873 -221.75048 C 79.411994 -219.73328 78.362778 -216.96944 78.362778 -213.45952 C 78.362778 -210.4203 79.344419 -207.9396 81.307818 -206.01656 C 83.271217 -204.0935 85.840101 -203.13146 89.013808 -203.13146 C 91.730295 -203.13146 93.80809 -203.54877 95.247019 -204.38255 L 95.247019 -209.50627 C 93.72741 -208.51111 92.174213 -208.01334 90.587355 -208.01334 C 88.798777 -208.01334 87.393124 -208.53123 86.371075 -209.56673 C 85.349036 -210.61567 84.838352 -212.05433 84.838352 -213.88326 C 84.838352 -215.76597 85.369147 -217.23869 86.431536 -218.30108 C 87.507375 -219.37692 88.959975 -219.91494 90.788893 -219.91494 C 92.429541 -219.91494 93.91568 -219.41715 95.247019 -218.422 L 95.247019 -223.82839 C 94.15774 -224.47389 92.396148 -224.79629 89.96207 -224.79629 z M 110.26987 -217.93986 A 27.874584 27.874584 0 0 1 110.80318 -215.94567 A 27.874523 27.874701 0 0 0 110.26987 -217.93986 z M 110.80628 -215.93068 A 27.874584 27.874584 0 0 1 111.18816 -213.9122 A 27.874523 27.874701 0 0 0 110.80628 -215.93068 z M 111.19333 -213.87499 A 27.874584 27.874584 0 0 1 111.42226 -211.83946 A 27.874523 27.874701 0 0 0 111.19333 -213.87499 z M 111.42381 -211.81672 A 27.874584 27.874584 0 0 1 111.50132 -209.75432 A 27.874523 27.874701 0 0 0 111.42381 -211.81672 z M 55.856658 -207.43766 A 27.874523 27.874701 0 0 0 56.990956 -201.53776 A 27.874584 27.874584 0 0 1 55.856658 -207.43766 z M 111.39694 -207.43766 A 27.874584 27.874584 0 0 1 110.26264 -201.53776 A 27.874523 27.874701 0 0 0 111.39694 -207.43766 z M 62.462457 -191.64379 A 27.874523 27.874701 0 0 0 63.193678 -190.79475 A 27.874584 27.874584 0 0 1 62.462457 -191.64379 z " />
    <path
       id="path234"
       style="fill:#20277c;fill-opacity:1;stroke-width:0.342"
       d="m 83.627056,-237.62875 a 27.874584,27.874584 0 0 0 -27.874784,27.87478 27.874584,27.874584 0 0 0 27.874784,27.87427 27.874584,27.874584 0 0 0 27.874264,-27.87427 27.874584,27.874584 0 0 0 -1.91874,-10.15648 c -0.0641,-0.003 -0.12925,-0.005 -0.19534,-0.005 -1.08928,0 -1.96312,0.43072 -2.62206,1.29139 -0.64551,0.86067 -0.96842,2.03059 -0.96842,3.50986 v 11.47786 h -6.374285 v -20.65611 h 6.374285 v 3.2272 h 0.0806 c 0.52974,-0.8865 1.22937,-1.63757 2.09806,-2.25465 a 27.874584,27.874584 0 0 0 -24.348384,-14.3092 z m 6.335014,12.83229 c 2.43408,0 4.195665,0.3224 5.284949,0.9679 v 5.40639 c -1.331348,-0.99515 -2.817476,-1.49293 -4.458126,-1.49293 -1.828922,0 -3.281521,0.53801 -4.357357,1.61385 -1.062388,1.06239 -1.593184,2.53511 -1.593184,4.41782 0,1.82893 0.510678,3.26759 1.532723,4.31653 1.022045,1.0355 2.427702,1.5534 4.21628,1.5534 1.586858,0 3.140045,-0.49778 4.659664,-1.49294 v 5.12372 c -1.438932,0.83378 -3.516725,1.25109 -6.233211,1.25109 -3.173718,0 -5.742589,-0.96204 -7.70599,-2.8851 -1.963401,-1.92304 -2.94504,-4.40373 -2.94504,-7.44295 0,-3.50993 1.049214,-6.27377 3.147095,-8.29097 2.111329,-2.03064 4.928833,-3.04581 8.452197,-3.04581 z" />
    <g
       aria-label="cmarc"
       id="text5526"
       style="font-style:italic;font-size:41.3122px;line-height:0em;font-family:'CMU Serif';-inkscape-font-specification:'CMU Serif Italic';font-variant-ligatures:no-contextual;fill:#ffffff;stroke-width:2.50312" />
  </g>
</svg>
