<?xml version="1.0" encoding="UTF-8" standalone="no"?>
<!-- Created with Inkscape (http://www.inkscape.org/) -->

<svg
   width="135.83594mm"
   height="55.749168mm"
   viewBox="0 0 135.83594 55.749168"
   version="1.1"
   id="svg5"
   inkscape:version="1.2.2 (732a01da63, 2022-12-09)"
   sodipodi:docname="logo.svg"
   xmlns:inkscape="http://www.inkscape.org/namespaces/inkscape"
   xmlns:sodipodi="http://sodipodi.sourceforge.net/DTD/sodipodi-0.dtd"
   xmlns="http://www.w3.org/2000/svg"
   xmlns:svg="http://www.w3.org/2000/svg">
  <sodipodi:namedview
     id="namedview7"
     pagecolor="#505050"
     bordercolor="#eeeeee"
     borderopacity="1"
     inkscape:showpageshadow="0"
     inkscape:pageopacity="0"
     inkscape:pagecheckerboard="0"
     inkscape:deskcolor="#505050"
     inkscape:document-units="mm"
     showgrid="false"
     inkscape:zoom="1.6088805"
     inkscape:cx="238.98606"
     inkscape:cy="103.17734"
     inkscape:window-width="1846"
     inkscape:window-height="1057"
     inkscape:window-x="1912"
     inkscape:window-y="1042"
     inkscape:window-maximized="1"
     inkscape:current-layer="layer1" />
  <defs
     id="defs2" />
  <g
     inkscape:label="Ebene 1"
     inkscape:groupmode="layer"
     id="layer1"
     transform="translate(-55.749172,237.63288)">
    <path
       id="path234"
       style="fill:#20277c;fill-opacity:1;stroke-width:0.342"
       d="m 83.627056,-237.62875 a 27.874584,27.874584 0 0 0 -27.874784,27.87478 27.874584,27.874584 0 0 0 27.874784,27.87427 27.874584,27.874584 0 0 0 27.874264,-27.87427 27.874584,27.874584 0 0 0 -1.91874,-10.15648 c -0.0641,-0.003 -0.12925,-0.005 -0.19534,-0.005 -1.08928,0 -1.96312,0.43072 -2.62206,1.29139 -0.64551,0.86067 -0.96842,2.03059 -0.96842,3.50986 v 11.47786 h -6.374285 v -20.65611 h 6.374285 v 3.2272 h 0.0806 c 0.52974,-0.8865 1.22937,-1.63757 2.09806,-2.25465 a 27.874584,27.874584 0 0 0 -24.348384,-14.3092 z m 6.335014,12.83229 c 2.43408,0 4.195665,0.3224 5.284949,0.9679 v 5.40639 c -1.331348,-0.99515 -2.817476,-1.49293 -4.458126,-1.49293 -1.828922,0 -3.281521,0.53801 -4.357357,1.61385 -1.062388,1.06239 -1.593184,2.53511 -1.593184,4.41782 0,1.82893 0.510678,3.26759 1.532723,4.31653 1.022045,1.0355 2.427702,1.5534 4.21628,1.5534 1.586858,0 3.140045,-0.49778 4.659664,-1.49294 v 5.12372 c -1.438932,0.83378 -3.516725,1.25109 -6.233211,1.25109 -3.173718,0 -5.742589,-0.96204 -7.70599,-2.8851 -1.963401,-1.92304 -2.94504,-4.40373 -2.94504,-7.44295 0,-3.50993 1.049214,-6.27377 3.147095,-8.29097 2.111329,-2.03064 4.928833,-3.04581 8.452197,-3.04581 z" />
    <g
       aria-label="cmarc"
       id="text5526"
       style="font-style:italic;font-size:41.3122px;line-height:0em;font-family:'CMU Serif';-inkscape-font-specification:'CMU Serif Italic';font-variant-ligatures:no-contextual;fill:#ffffff;stroke-width:2.50312" />
    <g
       aria-label="cmarc"
       id="text5526-7"
       style="font-style:italic;font-size:41.3122px;line-height:0em;font-family:'CMU Serif';-inkscape-font-specification:'CMU Serif Italic';font-variant-ligatures:no-contextual;fill:#20277c;stroke-width:2.50312;fill-opacity:1">
      <path
         d="m 154.44851,-203.6403 h -6.03142 v -2.96528 h -0.0807 q -2.07771,3.46957 -6.15245,3.46957 -3.00562,0 -4.74041,-1.69444 -1.71462,-1.71462 -1.71462,-4.55887 0,-6.01124 7.12071,-6.93915 l 5.6078,-0.74637 q 0,-3.38889 -3.6713,-3.38889 -3.69147,0 -7.01984,2.19875 v -4.80093 q 1.33135,-0.68585 3.63095,-1.21032 2.31978,-0.52447 4.21595,-0.52447 8.83532,0 8.83532,8.81515 z m -5.99108,-8.39154 v -1.39187 l -3.75198,0.48413 q -3.10649,0.40344 -3.10649,2.8039 0,1.08929 0.74637,1.79531 0.76653,0.68584 2.05754,0.68584 1.7953,0 2.92493,-1.23049 1.12963,-1.25066 1.12963,-3.14682 z"
         style="font-style:normal;font-weight:bold;font-family:'Myanmar Text';-inkscape-font-specification:'Myanmar Text Bold';fill:#20277c;fill-opacity:1"
         id="path7629-6" />
      <path
         id="path7627-1"
         style="font-style:normal;font-weight:bold;font-family:'Myanmar Text';-inkscape-font-specification:'Myanmar Text Bold';fill:#20277c;fill-opacity:1"
         d="M 112.55139 -224.80059 C 111.13935 -224.80059 109.8348 -224.45085 108.63793 -223.75156 C 108.40601 -223.61714 108.18722 -223.47255 107.97544 -223.32213 A 27.874584 27.874584 0 0 1 109.58258 -219.91045 C 111.61329 -219.82131 112.632 -218.3679 112.632 -215.54172 L 112.632 -203.64012 L 119.00629 -203.64012 L 119.00629 -215.19859 C 119.00629 -216.54339 119.33591 -217.66636 119.99486 -218.56738 C 120.65382 -219.4684 121.50752 -219.91923 122.55646 -219.91923 C 124.76193 -219.91923 125.86479 -218.4197 125.86479 -215.4208 L 125.86479 -203.64012 L 132.21892 -203.64012 L 132.21892 -216.48998 C 132.21892 -222.03055 129.97297 -224.80059 125.48135 -224.80059 C 122.42866 -224.80059 120.11565 -223.51667 118.54224 -220.94811 C 117.4664 -223.51667 115.4696 -224.80059 112.55139 -224.80059 z " />
      <path
         d="m 172.96638,-218.54739 q -1.1498,-0.62533 -2.68287,-0.62533 -2.07771,0 -3.24769,1.53307 -1.16997,1.51289 -1.16997,4.13525 v 9.8641 h -6.37435 v -20.6561 h 6.37435 v 3.83267 h 0.0807 q 1.51289,-4.19577 5.44643,-4.19577 1.0086,0 1.57341,0.24206 z"
         style="font-style:normal;font-weight:bold;font-family:'Myanmar Text';-inkscape-font-specification:'Myanmar Text Bold';fill:#20277c;fill-opacity:1"
         id="path7631-6" />
      <path
         d="m 191.58511,-204.38667 q -2.1584,1.25066 -6.23314,1.25066 -4.76059,0 -7.70569,-2.88459 -2.94511,-2.88459 -2.94511,-7.44345 0,-5.26489 3.14683,-8.29069 3.167,-3.04596 8.45205,-3.04596 3.65113,0 5.28506,0.96825 v 5.40609 q -1.99703,-1.49273 -4.45801,-1.49273 -2.74338,0 -4.35714,1.61376 -1.59359,1.59359 -1.59359,4.41766 0,2.74339 1.53307,4.31681 1.53307,1.55324 4.21594,1.55324 2.3803,0 4.65973,-1.49273 z"
         style="font-style:normal;font-weight:bold;font-family:'Myanmar Text';-inkscape-font-specification:'Myanmar Text Bold';fill:#20277c;fill-opacity:1"
         id="path7633-7" />
    </g>
    <g
       aria-label="Security for Planteam CPDL"
       id="text6475"
       style="font-weight:bold;font-size:6.06793px;line-height:0em;font-family:'Myanmar Text';-inkscape-font-specification:'Myanmar Text Bold';font-variant-ligatures:no-contextual;baseline-shift:baseline;opacity:1;vector-effect:none;fill:#20277c;stroke-width:0.367655;stop-color:#000000;stop-opacity:1">
      <path
         d="m 114.60411,-198.17148 q 0,0.38517 -0.18962,0.66368 -0.18666,0.27851 -0.53924,0.42665 -0.34962,0.14814 -0.83553,0.14814 -0.23703,0 -0.45331,-0.0267 -0.21629,-0.0267 -0.40888,-0.077 -0.18962,-0.0533 -0.34665,-0.1274 v -0.66961 q 0.26369,0.11556 0.58961,0.21037 0.32591,0.0918 0.66368,0.0918 0.27554,0 0.45628,-0.0711 0.18369,-0.0741 0.27258,-0.2074 0.0889,-0.13629 0.0889,-0.31703 0,-0.19258 -0.1037,-0.32591 -0.1037,-0.13333 -0.31406,-0.24296 -0.2074,-0.11258 -0.52146,-0.23999 -0.21333,-0.0859 -0.40888,-0.19555 -0.19258,-0.10962 -0.34369,-0.25776 -0.1511,-0.14815 -0.23999,-0.34962 -0.0859,-0.20444 -0.0859,-0.47998 0,-0.3674 0.17481,-0.62813 0.17777,-0.26073 0.49776,-0.39999 0.32295,-0.13925 0.75256,-0.13925 0.34073,0 0.63998,0.0711 0.30221,0.0711 0.59257,0.20147 l -0.22518,0.57183 q -0.26665,-0.10962 -0.5185,-0.1748 -0.24888,-0.0652 -0.50961,-0.0652 -0.22517,0 -0.38221,0.0682 -0.15703,0.0681 -0.23999,0.19258 -0.08,0.12148 -0.08,0.29036 0,0.18963 0.0918,0.31999 0.0948,0.12741 0.29036,0.23407 0.19852,0.10666 0.50962,0.23703 0.3585,0.14814 0.60738,0.3111 0.25184,0.16295 0.38517,0.39109 0.13333,0.22518 0.13333,0.56591 z"
         style="font-weight:600;font-family:'Open Sans';-inkscape-font-specification:'Open Sans Semi-Bold'"
         id="path9611" />
      <path
         d="m 116.67515,-200.33437 q 0.4385,0 0.75256,0.18074 0.31407,0.18073 0.48295,0.51257 0.16888,0.33184 0.16888,0.79405 v 0.37332 h -2.18955 q 0.0119,0.47702 0.25481,0.73479 0.24591,0.25776 0.68738,0.25776 0.31406,0 0.56294,-0.0592 0.25184,-0.0622 0.5185,-0.18074 v 0.56591 q -0.24592,0.11555 -0.50072,0.16888 -0.25481,0.0533 -0.61035,0.0533 -0.48295,0 -0.85034,-0.18666 -0.36443,-0.18962 -0.57183,-0.56294 -0.20444,-0.37332 -0.20444,-0.92737 0,-0.55109 0.18666,-0.93627 0.18666,-0.38517 0.52443,-0.58664 0.33776,-0.20148 0.78812,-0.20148 z m 0,0.52443 q -0.32888,0 -0.53332,0.21333 -0.20147,0.21332 -0.23702,0.62516 h 1.49327 q -0.003,-0.24592 -0.083,-0.43554 -0.077,-0.18962 -0.23702,-0.29629 -0.15704,-0.10666 -0.40295,-0.10666 z"
         style="font-weight:600;font-family:'Open Sans';-inkscape-font-specification:'Open Sans Semi-Bold'"
         id="path9613" />
      <path
         d="m 120.18613,-196.93301 q -0.46517,0 -0.80589,-0.18073 -0.34073,-0.18074 -0.52443,-0.55406 -0.1837,-0.37332 -0.1837,-0.94811 0,-0.5985 0.20148,-0.97774 0.20147,-0.37925 0.55701,-0.55998 0.35851,-0.18074 0.82072,-0.18074 0.29332,0 0.53035,0.0593 0.23999,0.0563 0.40591,0.13926 l -0.2074,0.55701 q -0.18074,-0.0741 -0.37036,-0.12444 -0.18962,-0.0504 -0.36443,-0.0504 -0.2874,0 -0.47998,0.12741 -0.18963,0.1274 -0.28444,0.37924 -0.0918,0.25185 -0.0918,0.62517 0,0.36146 0.0948,0.61034 0.0948,0.24592 0.28147,0.37332 0.18666,0.12444 0.45924,0.12444 0.26962,0 0.48295,-0.0652 0.21332,-0.0652 0.40294,-0.16888 v 0.60442 q -0.18666,0.10666 -0.39998,0.15703 -0.21333,0.0533 -0.52443,0.0533 z"
         style="font-weight:600;font-family:'Open Sans';-inkscape-font-specification:'Open Sans Semi-Bold'"
         id="path9615" />
      <path
         d="m 124.73708,-200.27215 v 3.27989 h -0.54813 l -0.0948,-0.44147 h -0.0385 q -0.1037,0.16888 -0.26369,0.28147 -0.15999,0.10963 -0.35554,0.16296 -0.19555,0.0563 -0.41184,0.0563 -0.37036,0 -0.63405,-0.12444 -0.26073,-0.1274 -0.39999,-0.39109 -0.13925,-0.2637 -0.13925,-0.68146 v -2.14215 h 0.69923 v 2.01178 q 0,0.38221 0.15407,0.57183 0.15703,0.18963 0.48591,0.18963 0.31703,0 0.50369,-0.13037 0.18666,-0.13036 0.26369,-0.38517 0.08,-0.2548 0.08,-0.62516 v -1.63254 z"
         style="font-weight:600;font-family:'Open Sans';-inkscape-font-specification:'Open Sans Semi-Bold'"
         id="path9617" />
      <path
         d="m 127.39476,-200.33437 q 0.083,0 0.18074,0.009 0.0978,0.009 0.16888,0.0237 l -0.0652,0.65182 q -0.0622,-0.0178 -0.15407,-0.0267 -0.0889,-0.009 -0.16,-0.009 -0.18666,0 -0.35554,0.0622 -0.16888,0.0593 -0.29925,0.1837 -0.13036,0.12147 -0.20443,0.30517 -0.0741,0.1837 -0.0741,0.42665 v 1.7155 h -0.69923 v -3.27989 h 0.54517 l 0.0948,0.57776 h 0.0326 q 0.0978,-0.17481 0.24295,-0.31999 0.14518,-0.14518 0.33184,-0.2311 0.18963,-0.0889 0.4148,-0.0889 z"
         style="font-weight:600;font-family:'Open Sans';-inkscape-font-specification:'Open Sans Semi-Bold'"
         id="path9619" />
      <path
         d="m 129.04804,-200.27215 v 3.27989 h -0.69627 v -3.27989 z m -0.34369,-1.25625 q 0.15999,0 0.27554,0.0859 0.11852,0.0859 0.11852,0.29628 0,0.2074 -0.11852,0.29629 -0.11555,0.0859 -0.27554,0.0859 -0.16592,0 -0.28148,-0.0859 -0.11258,-0.0889 -0.11258,-0.29629 0,-0.21036 0.11258,-0.29628 0.11556,-0.0859 0.28148,-0.0859 z"
         style="font-weight:600;font-family:'Open Sans';-inkscape-font-specification:'Open Sans Semi-Bold'"
         id="path9621" />
      <path
         d="m 131.26425,-197.49595 q 0.1363,0 0.26962,-0.0237 0.13333,-0.0267 0.24296,-0.0622 v 0.52739 q -0.11555,0.0504 -0.29925,0.0859 -0.1837,0.0356 -0.38221,0.0356 -0.27851,0 -0.50072,-0.0918 -0.22222,-0.0948 -0.35258,-0.32295 -0.13037,-0.22814 -0.13037,-0.63109 v -1.76289 h -0.44739 v -0.3111 l 0.47998,-0.24592 0.22814,-0.7022 h 0.43851 v 0.72886 h 0.93922 v 0.53036 h -0.93922 v 1.75401 q 0,0.24888 0.12444,0.37035 0.12444,0.12148 0.32887,0.12148 z"
         style="font-weight:600;font-family:'Open Sans';-inkscape-font-specification:'Open Sans Semi-Bold'"
         id="path9623" />
      <path
         d="m 131.94867,-200.27215 h 0.7585 l 0.67256,1.87253 q 0.0445,0.1274 0.08,0.25184 0.0385,0.12148 0.0652,0.23999 0.0296,0.11852 0.0474,0.23703 h 0.0178 q 0.0296,-0.15407 0.083,-0.34369 0.0563,-0.19258 0.12444,-0.38517 l 0.6459,-1.87253 h 0.7496 l -1.40735,3.73024 q -0.12148,0.31999 -0.29925,0.54517 -0.17481,0.22814 -0.4148,0.34369 -0.23999,0.11851 -0.54813,0.11851 -0.14814,0 -0.25777,-0.0178 -0.10963,-0.0148 -0.18666,-0.0326 v -0.55701 q 0.0622,0.0148 0.15703,0.0267 0.0948,0.0119 0.19555,0.0119 0.18666,0 0.32295,-0.0741 0.13629,-0.0741 0.2311,-0.21036 0.0948,-0.13333 0.15704,-0.30518 l 0.11555,-0.30813 z"
         style="font-weight:600;font-family:'Open Sans';-inkscape-font-specification:'Open Sans Semi-Bold'"
         id="path9625" />
      <path
         d="m 138.90546,-199.74179 h -0.79701 v 2.74953 h -0.69627 v -2.74953 h -0.53628 v -0.33481 l 0.53628,-0.20443 v -0.22814 q 0,-0.41777 0.13037,-0.66368 0.13333,-0.24592 0.37924,-0.35258 0.24888,-0.10963 0.59257,-0.10963 0.22518,0 0.41184,0.0385 0.18666,0.0356 0.31406,0.083 l -0.18073,0.52739 q -0.10074,-0.0326 -0.22518,-0.0593 -0.12444,-0.0296 -0.26665,-0.0296 -0.23703,0 -0.34962,0.14814 -0.10963,0.14815 -0.10963,0.43258 v 0.22221 h 0.79701 z"
         style="font-weight:600;font-family:'Open Sans';-inkscape-font-specification:'Open Sans Semi-Bold'"
         id="path9627" />
      <path
         d="m 142.36608,-198.63961 q 0,0.40887 -0.10667,0.7259 -0.10666,0.31702 -0.3111,0.53627 -0.20443,0.21629 -0.49183,0.33184 -0.2874,0.11259 -0.64887,0.11259 -0.33776,0 -0.61923,-0.11259 -0.28147,-0.11555 -0.48887,-0.33184 -0.20444,-0.21925 -0.31703,-0.53627 -0.11259,-0.31703 -0.11259,-0.7259 0,-0.5422 0.18666,-0.91849 0.18962,-0.37924 0.53924,-0.57775 0.34962,-0.19852 0.83256,-0.19852 0.45332,0 0.79998,0.19852 0.34665,0.19851 0.5422,0.57775 0.19555,0.37925 0.19555,0.91849 z m -2.37918,0 q 0,0.3585 0.0859,0.61331 0.0889,0.2548 0.27258,0.3911 0.1837,0.13332 0.47406,0.13332 0.29036,0 0.47405,-0.13332 0.1837,-0.1363 0.26962,-0.3911 0.0859,-0.25481 0.0859,-0.61331 0,-0.35851 -0.0859,-0.60739 -0.0859,-0.25184 -0.26962,-0.38221 -0.18369,-0.13332 -0.47702,-0.13332 -0.43257,0 -0.63109,0.29036 -0.19851,0.29036 -0.19851,0.83256 z"
         style="font-weight:600;font-family:'Open Sans';-inkscape-font-specification:'Open Sans Semi-Bold'"
         id="path9629" />
      <path
         d="m 144.82821,-200.33437 q 0.083,0 0.18074,0.009 0.0978,0.009 0.16888,0.0237 l -0.0652,0.65182 q -0.0622,-0.0178 -0.15407,-0.0267 -0.0889,-0.009 -0.16,-0.009 -0.18666,0 -0.35554,0.0622 -0.16888,0.0593 -0.29925,0.1837 -0.13036,0.12147 -0.20444,0.30517 -0.0741,0.1837 -0.0741,0.42665 v 1.7155 h -0.69923 v -3.27989 h 0.54516 l 0.0948,0.57776 h 0.0326 q 0.0978,-0.17481 0.24295,-0.31999 0.14518,-0.14518 0.33184,-0.2311 0.18962,-0.0889 0.4148,-0.0889 z"
         style="font-weight:600;font-family:'Open Sans';-inkscape-font-specification:'Open Sans Semi-Bold'"
         id="path9631" />
      <path
         d="m 148.69178,-201.32396 q 0.83848,0 1.22366,0.34369 0.38517,0.34369 0.38517,0.96293 0,0.28147 -0.0889,0.53628 -0.0859,0.25184 -0.28443,0.44739 -0.19851,0.19258 -0.52443,0.30517 -0.32295,0.11259 -0.79701,0.11259 h -0.4622 v 1.62365 h -0.71109 v -4.3317 z m -0.0474,0.58961 h -0.50072 v 1.52587 h 0.38813 q 0.3348,0 0.56887,-0.077 0.23407,-0.08 0.35554,-0.25185 0.12148,-0.17184 0.12148,-0.45331 0,-0.37629 -0.22814,-0.55998 -0.22518,-0.1837 -0.70516,-0.1837 z"
         style="font-weight:600;font-family:'Open Sans';-inkscape-font-specification:'Open Sans Semi-Bold'"
         id="path9633" />
      <path
         d="m 151.79092,-196.99226 h -0.69923 v -4.61021 h 0.69923 z"
         style="font-weight:600;font-family:'Open Sans';-inkscape-font-specification:'Open Sans Semi-Bold'"
         id="path9635" />
      <path
         d="m 154.06936,-200.33437 q 0.6222,0 0.93923,0.27555 0.31998,0.27555 0.31998,0.85923 v 2.20733 h -0.49479 l -0.13333,-0.46517 h -0.0237 q -0.13926,0.17777 -0.2874,0.29332 -0.14814,0.11555 -0.34369,0.17185 -0.19259,0.0592 -0.4711,0.0592 -0.29332,0 -0.52442,-0.10666 -0.2311,-0.10963 -0.36443,-0.33184 -0.13333,-0.22221 -0.13333,-0.56294 0,-0.50665 0.37628,-0.76146 0.37925,-0.2548 1.14366,-0.28147 l 0.56887,-0.0207 v -0.17184 q 0,-0.34073 -0.15999,-0.48591 -0.15703,-0.14518 -0.44443,-0.14518 -0.24592,0 -0.47702,0.0711 -0.2311,0.0711 -0.45036,0.17481 l -0.22517,-0.49184 q 0.23999,-0.1274 0.54516,-0.2074 0.30814,-0.08 0.63998,-0.08 z m 0.56887,1.77476 -0.42369,0.0148 q -0.52146,0.0178 -0.73183,0.17777 -0.21036,0.16 -0.21036,0.4385 0,0.24296 0.14518,0.35555 0.14518,0.10962 0.38221,0.10962 0.36147,0 0.5985,-0.20444 0.23999,-0.2074 0.23999,-0.60738 z"
         style="font-weight:600;font-family:'Open Sans';-inkscape-font-specification:'Open Sans Semi-Bold'"
         id="path9637" />
      <path
         d="m 158.01292,-200.33437 q 0.55406,0 0.86219,0.2874 0.3111,0.28444 0.3111,0.91552 v 2.13919 h -0.69627 v -2.00882 q 0,-0.38221 -0.15703,-0.57183 -0.15703,-0.19259 -0.48591,-0.19259 -0.47702,0 -0.66368,0.29333 -0.18369,0.29332 -0.18369,0.85034 v 1.62957 h -0.69627 v -3.27989 h 0.5422 l 0.0978,0.44443 h 0.0385 q 0.10666,-0.17184 0.26369,-0.28147 0.16,-0.11259 0.35555,-0.16888 0.19851,-0.0563 0.41183,-0.0563 z"
         style="font-weight:600;font-family:'Open Sans';-inkscape-font-specification:'Open Sans Semi-Bold'"
         id="path9639" />
      <path
         d="m 161.37873,-197.49595 q 0.13629,0 0.26962,-0.0237 0.13333,-0.0267 0.24295,-0.0622 v 0.52739 q -0.11555,0.0504 -0.29925,0.0859 -0.18369,0.0356 -0.38221,0.0356 -0.2785,0 -0.50072,-0.0918 -0.22221,-0.0948 -0.35258,-0.32295 -0.13036,-0.22814 -0.13036,-0.63109 v -1.76289 h -0.4474 v -0.3111 l 0.47999,-0.24592 0.22814,-0.7022 h 0.4385 v 0.72886 h 0.93923 v 0.53036 h -0.93923 v 1.75401 q 0,0.24888 0.12444,0.37035 0.12444,0.12148 0.32888,0.12148 z"
         style="font-weight:600;font-family:'Open Sans';-inkscape-font-specification:'Open Sans Semi-Bold'"
         id="path9641" />
      <path
         d="m 163.86456,-200.33437 q 0.43851,0 0.75257,0.18074 0.31406,0.18073 0.48295,0.51257 0.16888,0.33184 0.16888,0.79405 v 0.37332 h -2.18955 q 0.0119,0.47702 0.2548,0.73479 0.24592,0.25776 0.68739,0.25776 0.31406,0 0.56294,-0.0592 0.25184,-0.0622 0.5185,-0.18074 v 0.56591 q -0.24592,0.11555 -0.50072,0.16888 -0.25481,0.0533 -0.61035,0.0533 -0.48295,0 -0.85034,-0.18666 -0.36443,-0.18962 -0.57183,-0.56294 -0.20444,-0.37332 -0.20444,-0.92737 0,-0.55109 0.18666,-0.93627 0.18666,-0.38517 0.52442,-0.58664 0.33777,-0.20148 0.78812,-0.20148 z m 0,0.52443 q -0.32887,0 -0.53331,0.21333 -0.20147,0.21332 -0.23703,0.62516 h 1.49328 q -0.003,-0.24592 -0.083,-0.43554 -0.077,-0.18962 -0.23703,-0.29629 -0.15703,-0.10666 -0.40295,-0.10666 z"
         style="font-weight:600;font-family:'Open Sans';-inkscape-font-specification:'Open Sans Semi-Bold'"
         id="path9643" />
      <path
         d="m 167.33999,-200.33437 q 0.6222,0 0.93923,0.27555 0.31999,0.27555 0.31999,0.85923 v 2.20733 h -0.4948 l -0.13333,-0.46517 h -0.0237 q -0.13925,0.17777 -0.2874,0.29332 -0.14814,0.11555 -0.34369,0.17185 -0.19258,0.0592 -0.47109,0.0592 -0.29333,0 -0.52443,-0.10666 -0.2311,-0.10963 -0.36443,-0.33184 -0.13333,-0.22221 -0.13333,-0.56294 0,-0.50665 0.37628,-0.76146 0.37925,-0.2548 1.14367,-0.28147 l 0.56887,-0.0207 v -0.17184 q 0,-0.34073 -0.16,-0.48591 -0.15703,-0.14518 -0.44443,-0.14518 -0.24591,0 -0.47702,0.0711 -0.2311,0.0711 -0.45035,0.17481 l -0.22518,-0.49184 q 0.23999,-0.1274 0.54517,-0.2074 0.30813,-0.08 0.63997,-0.08 z m 0.56887,1.77476 -0.42369,0.0148 q -0.52146,0.0178 -0.73182,0.17777 -0.21036,0.16 -0.21036,0.4385 0,0.24296 0.14518,0.35555 0.14518,0.10962 0.3822,0.10962 0.36147,0 0.5985,-0.20444 0.23999,-0.2074 0.23999,-0.60738 z"
         style="font-weight:600;font-family:'Open Sans';-inkscape-font-specification:'Open Sans Semi-Bold'"
         id="path9645" />
      <path
         d="m 173.28052,-200.33437 q 0.55109,0 0.8296,0.28444 0.28147,0.28443 0.28147,0.91256 v 2.14511 h -0.69627 v -2.02067 q 0,-0.37332 -0.14518,-0.56294 -0.14518,-0.18963 -0.44146,-0.18963 -0.4148,0 -0.5985,0.26666 -0.18073,0.26369 -0.18073,0.76738 v 1.7392 h -0.69628 v -2.02067 q 0,-0.24888 -0.0652,-0.4148 -0.0622,-0.16888 -0.19258,-0.25184 -0.13037,-0.0859 -0.32888,-0.0859 -0.2874,0 -0.45924,0.13037 -0.16889,0.13036 -0.24296,0.38517 -0.0741,0.25184 -0.0741,0.61924 v 1.63846 h -0.69627 v -3.27989 h 0.5422 l 0.0978,0.44147 h 0.0385 q 0.10074,-0.17185 0.24888,-0.28147 0.15111,-0.11259 0.33481,-0.16592 0.18369,-0.0563 0.3822,-0.0563 0.3674,0 0.61924,0.13037 0.25184,0.1274 0.37628,0.3911 h 0.0533 q 0.15406,-0.26666 0.42961,-0.39406 0.27555,-0.12741 0.58368,-0.12741 z"
         style="font-weight:600;font-family:'Open Sans';-inkscape-font-specification:'Open Sans Semi-Bold'"
         id="path9647" />
      <path
         d="m 178.85661,-200.78176 q -0.31109,0 -0.55701,0.11259 -0.24296,0.11259 -0.41184,0.32592 -0.16888,0.21036 -0.25777,0.51257 -0.0889,0.29925 -0.0889,0.67553 0,0.50369 0.14221,0.86812 0.14222,0.36147 0.43258,0.55701 0.29036,0.19259 0.73479,0.19259 0.27554,0 0.53628,-0.0533 0.26073,-0.0533 0.53924,-0.14518 v 0.60442 q -0.2637,0.1037 -0.53332,0.15111 -0.26962,0.0474 -0.6222,0.0474 -0.66368,0 -1.10218,-0.27554 -0.43554,-0.27555 -0.65183,-0.77627 -0.21332,-0.50072 -0.21332,-1.17329 0,-0.49184 0.13629,-0.90071 0.13629,-0.40887 0.39702,-0.70516 0.26073,-0.29925 0.64294,-0.45924 0.38517,-0.16296 0.87997,-0.16296 0.32591,0 0.63997,0.0741 0.31703,0.0711 0.58665,0.20444 l -0.24888,0.58664 q -0.22518,-0.10666 -0.47109,-0.18369 -0.24592,-0.077 -0.50962,-0.077 z"
         style="font-weight:600;font-family:'Open Sans';-inkscape-font-specification:'Open Sans Semi-Bold'"
         id="path9649" />
      <path
         d="m 182.11576,-201.32396 q 0.83849,0 1.22366,0.34369 0.38518,0.34369 0.38518,0.96293 0,0.28147 -0.0889,0.53628 -0.0859,0.25184 -0.28443,0.44739 -0.19852,0.19258 -0.52443,0.30517 -0.32295,0.11259 -0.79701,0.11259 h -0.4622 v 1.62365 h -0.71109 v -4.3317 z m -0.0474,0.58961 h -0.50072 v 1.52587 h 0.38813 q 0.3348,0 0.56887,-0.077 0.23406,-0.08 0.35554,-0.25185 0.12148,-0.17184 0.12148,-0.45331 0,-0.37629 -0.22814,-0.55998 -0.22518,-0.1837 -0.70516,-0.1837 z"
         style="font-weight:600;font-family:'Open Sans';-inkscape-font-specification:'Open Sans Semi-Bold'"
         id="path9651" />
      <path
         d="m 188.10369,-199.19959 q 0,0.73182 -0.27258,1.22366 -0.27258,0.48887 -0.79108,0.73775 -0.5185,0.24592 -1.25033,0.24592 h -1.20292 v -4.3317 h 1.33329 q 0.67257,0 1.16144,0.24295 0.48887,0.24 0.75553,0.71405 0.26665,0.4711 0.26665,1.16737 z m -0.74071,0.0207 q 0,-0.53332 -0.16888,-0.87701 -0.16592,-0.34369 -0.49184,-0.50961 -0.32295,-0.16888 -0.79701,-0.16888 h -0.60738 v 3.14655 h 0.50368 q 0.78516,0 1.17329,-0.39998 0.38814,-0.39999 0.38814,-1.19107 z"
         style="font-weight:600;font-family:'Open Sans';-inkscape-font-specification:'Open Sans Semi-Bold'"
         id="path9653" />
      <path
         d="m 189.03403,-196.99226 v -4.3317 h 0.71109 v 3.72727 h 1.83993 v 0.60443 z"
         style="font-weight:600;font-family:'Open Sans';-inkscape-font-specification:'Open Sans Semi-Bold'"
         id="path9655" />
    </g>
  </g>
</svg>
